# xmcd CD database file
#
# Track frame offsets:
#	150
#	15255
#	27722
#	44740
#	62547
#	76422
#	90287
#	106187
#	121170
#	137800
#
# Disc length: 1998 seconds
#
# Revision: 2
# Processed by: cddbd v1.4PL0 Copyright (c) Steve Scherf et al.
# Submitted via: CDex 1.50
#
DISCID=7607cc0a
DTITLE=Bryan Austin - Bryan Austin
DYEAR=1994
DGENRE=Country
TTITLE0=Radio Active
TTITLE1=You're Right I'm Wrong
TTITLE2=That's What She Said
TTITLE3=Is It Just Me
TTITLE4=Open Your Eyes
TTITLE5=Long Walk Back
TTITLE6=Susannah
TTITLE7=Limo Driver
TTITLE8=That Makes One Of Us
TTITLE9=All Dressed Up With No Place To Go
EXTD=YEAR: 1994
EXTT0=
EXTT1=
EXTT2=
EXTT3=
EXTT4=
EXTT5=
EXTT6=
EXTT7=
EXTT8=
EXTT9=
PLAYORDER=
